<?xml version="1.0" encoding="UTF-8" standalone="no"?>
<!DOCTYPE svg PUBLIC "-//W3C//DTD SVG 1.1//EN" "http://www.w3.org/Graphics/SVG/1.1/DTD/svg11.dtd">
<svg width="100%" height="100%" viewBox="0 0 2916 986" version="1.1" xmlns="http://www.w3.org/2000/svg" xmlns:xlink="http://www.w3.org/1999/xlink" xml:space="preserve" xmlns:serif="http://www.serif.com/" style="fill-rule:evenodd;clip-rule:evenodd;stroke-linejoin:round;stroke-miterlimit:1.41421;">
    <g transform="matrix(1,0,0,1,550.776,-1412.65)">
        <path d="M-1.591,1849.03C51.481,1708.42 1716.5,1091.46 1920.41,1679.03C2066,2098.55 2835.41,1664.03 1933.41,2204.03C1031.41,2744.03 1239.41,1567.03 0.409,1867.03C-1238.59,2167.03 -1.591,1849.03 -1.591,1849.03L12.721,1843.29" style="fill:rgb(193,196,228);"/>
    </g>
    <g transform="matrix(1,0,0,1,538.776,-1554.65)">
        <path d="M1916.58,2394.53C2419.74,2097.91 2368.63,2107.39 1920.58,2352.53C1051.49,2828.05 1190.9,1674.03 0.582,2008.54L0.582,2032.54C1230.92,1686.11 962.947,2956.72 1916.58,2394.53Z" style="fill:url(#_Linear1);"/>
    </g>
    <g transform="matrix(1.01354,0,0,1,549.469,-1251.98)">
        <path d="M1912.08,1394.54C1776.2,1205.21 991.835,1128.26 0.082,1658.54L-1.918,1702.54C170.568,1573.98 1448.83,919.307 1918.08,1562.54L1912.08,1394.54Z" style="fill:url(#_Linear2);"/>
    </g>
    <defs>
        <linearGradient id="_Linear1" x1="0" y1="0" x2="1" y2="0" gradientUnits="userSpaceOnUse" gradientTransform="matrix(2274.92,0,0,593.516,0.581824,2243.45)"><stop offset="0" style="stop-color:rgb(140,187,217);stop-opacity:1"/><stop offset="1" style="stop-color:rgb(23,65,91);stop-opacity:1"/></linearGradient>
        <linearGradient id="_Linear2" x1="0" y1="0" x2="1" y2="0" gradientUnits="userSpaceOnUse" gradientTransform="matrix(1920,0,0,450.555,-1.91815,1477.26)"><stop offset="0" style="stop-color:rgb(148,158,240);stop-opacity:1"/><stop offset="1" style="stop-color:rgb(73,77,203);stop-opacity:1"/></linearGradient>
    </defs>
</svg>
